<?xml version="1.0" standalone="no"?><!DOCTYPE svg PUBLIC "-//W3C//DTD SVG 1.1//EN" "http://www.w3.org/Graphics/SVG/1.1/DTD/svg11.dtd"><svg t="1687330419870" class="icon" viewBox="0 0 1024 1024" version="1.1" xmlns="http://www.w3.org/2000/svg" p-id="3535" xmlns:xlink="http://www.w3.org/1999/xlink" width="200" height="200"><path d="M315.3 420.3c3.3 4.8 6.2 8.4 9.5 11 3.7 2.2 7.3 4 11 5.5 0.4 1.6 0.9 3.1 1.3 4.7C351.6 542.2 441.7 620 503.5 620c62.1 0 152.8-78.5 166.5-179.9 0.4-1.3 0.7-2.6 1.1-4 5.5-1.5 10.3-4 14.7-8.4 3.7-3.7 7.3-9.2 11-15.8 3.7-6.6 5.9-15.8 7.3-26.8 1.5-8.4 1.1-15.8-0.4-21.7-1.5-5.9-3.3-10.6-5.1-14.3-2.6-4-5.5-7.3-8.4-9.9 0.7-20.9-0.4-41.9-3.7-62.8-3.3-17.6-7.7-37.1-14.3-57.6-6.6-20.9-16.5-39.3-30.1-56.2-11.7-14.7-30.1-28.6-54.7-41.5-25-12.8-52.9-19.5-84.4-19.5-11.7 0-24.2 1.1-37.1 2.9-12.9 1.8-26.1 5.5-38.9 10.6-12.8 5.1-25.7 12.5-37.8 21.7-12.5 9.2-23.5 21.3-33.4 36-11.4 16.2-19.5 33.8-24.6 52.5-5.1 19.1-8.8 37.1-11.4 54.3-2.6 20.2-3.3 40.4-2.9 60.2-4 4.8-7.3 10.3-9.9 16.5-2.6 5.1-4 11.4-4.8 19.1-0.7 7.7 0.4 16.2 3.7 24.6 2.8 8.5 5.8 15.5 9.4 20.3z" p-id="3536" fill="#1296db"></path><path d="M586.2 752.9c0-47 22.9-88.8 58.1-114.8 4.2-3.1 3.9-9.5-0.7-12.1-6-3.4-11.1-7.1-15.4-10.8 0 0 0 0.3-0.1 0.3-23.9 34.8-47.7 66-71.6 100.2-3 4.3-9.4 4.1-12.1-0.4-10.5-17.5-21.1-33.3-31.6-50.8-2.6-4.4-8.9-4.7-12-0.6-13.3 17.7-26.6 35.5-39.9 53.2-2.9 3.9-8.9 3.8-11.7-0.2-22.3-31.7-44.5-63.5-66.8-95.2-2.4-3.4-7.1-4.1-10.3-1.5-3.8 2.9-8 6-12.7 9.1-14 9.5-30.1 16.2-48.5 20.9-18.4 4.8-36 9.9-53.2 16.2-17.3 6.2-32.3 14.3-44.8 24.2-12.5 9.9-20.6 24.6-23.5 44.4-5.1 33.8-5.9 61.7-2.9 83.3 3.2 21.1 7.1 33.8 11.7 38.5 0.2 0.3 0.5 0.5 0.8 0.7 3.5 2.5 10.7 4.9 22.3 7.8 12.1 2.9 26.8 5.5 44.4 8.4 17.6 2.6 37.1 5.1 58 7.3 20.9 1.8 42.2 4 63.9 5.9 21.7 1.8 42.6 3.3 62.4 4.8 20.2 1.1 37.8 1.8 53.2 1.8 15.4 0 33.4-0.7 53.6-1.8 20.6-1.5 41.5-2.9 63.5-4.8 8.6-0.7 17.2-1.5 25.7-2.4 6.7-0.7 8.9-9.4 3.3-13.2-38-25.6-63.1-69.1-63.1-118.4z" p-id="3537" fill="#1296db"></path><path d="M728.8 636.4c-14.6 0-28.6 2.7-41.4 7.6-43.8 16.7-75 59.2-75 108.9 0 64.2 52.3 116.5 116.5 116.5 37 0 70-17.3 91.3-44.3 15.7-19.9 25.1-45 25.1-72.2 0-64.3-52.3-116.5-116.5-116.5z m61.7 130.4h-48.1v48.1c0 6.8-5.6 12.4-12.4 12.4-6.8 0-12.4-5.6-12.4-12.4v-48.1h-48.1c-6.8 0-12.4-5.6-12.4-12.4 0-6.8 5.6-12.4 12.4-12.4h48.1v-48.1c0-6.8 5.6-12.4 12.4-12.4 6.8 0 12.4 5.6 12.4 12.4V742h48.1c6.8 0 12.4 5.6 12.4 12.4 0 6.8-5.5 12.4-12.4 12.4z" p-id="3538" fill="#1296db"></path></svg>